<?xml version="1.0" encoding="utf-8"?>
<!-- Generator: Adobe Illustrator 19.2.0, SVG Export Plug-In . SVG Version: 6.00 Build 0)  -->
<svg class="new-order-icon" version="1.1" id="Layer_1" xmlns="http://www.w3.org/2000/svg" xmlns:xlink="http://www.w3.org/1999/xlink" x="0px" y="0px"
	 viewBox="0 0 75.4 75.4" style="enable-background:new 0 0 75.4 75.4;" xml:space="preserve">
<style type="text/css">
	.st0{fill:#FFFFFF;stroke:#1c8bad;stroke-width:2;stroke-miterlimit:10;}
</style>
<path class="new-order-icon" class="st0" d="M67.8,56.3H22.5c-2.3,0-4.2-1.9-4.2-4.2V22.1c0-2.3,1.9-4.2,4.2-4.2h45.3c2.3,0,4.2,1.9,4.2,4.2v29.9
	C72,54.4,70.1,56.3,67.8,56.3z"/>
<path class="new-order-icon" class="st0" d="M61.4,62.7H16.1c-2.3,0-4.2-1.9-4.2-4.2V28.6c0-2.3,1.9-4.2,4.2-4.2h45.3c2.3,0,4.2,1.9,4.2,4.2v29.9
	C65.5,60.8,63.7,62.7,61.4,62.7z"/>
<path class="new-order-icon" class="st0" d="M54.9,69.2H9.7c-2.3,0-4.2-1.9-4.2-4.2V35c0-2.3,1.9-4.2,4.2-4.2h45.3c2.3,0,4.2,1.9,4.2,4.2V65
	C59.1,67.3,57.2,69.2,54.9,69.2z"/>
</svg>
