<?xml version="1.0" encoding="utf-8"?>
<!-- Generator: Adobe Illustrator 15.1.0, SVG Export Plug-In . SVG Version: 6.00 Build 0)  -->
<!DOCTYPE svg PUBLIC "-//W3C//DTD SVG 1.1//EN" "http://www.w3.org/Graphics/SVG/1.1/DTD/svg11.dtd">
<svg version="1.1" id="Layer_1" xmlns="http://www.w3.org/2000/svg" xmlns:xlink="http://www.w3.org/1999/xlink" x="0px" y="0px"
	 width="56.689px" height="56.689px" viewBox="0 0 56.689 56.689" enable-background="new 0 0 56.689 56.689" xml:space="preserve">
<path class="building-svg" d="M47.267,50.407V7.282h2.078v-3h-42v3h1.547v43.125H3.345v2h50v-2H47.267z M28.056,40.782c-1.553,0-2.812,1.231-2.812,2.75
	h-0.001v6.75H10.892V8.095h34.375v42.188H30.868v-6.75C30.868,42.014,29.61,40.782,28.056,40.782z M16.094,13.298h4.557v4.557
	h-4.557V13.298z M25.801,13.298h4.557v4.557h-4.557V13.298z M40.065,17.855h-4.556v-4.557h4.556V17.855z M16.094,22.095h4.557v4.556
	h-4.557V22.095z M25.801,22.095h4.557v4.556h-4.557V22.095z M40.065,26.651h-4.556v-4.556h4.556V26.651z M16.094,30.941h4.557v4.557
	h-4.557V30.941z M25.801,30.941h4.557v4.557h-4.557V30.941z M40.065,35.497h-4.556v-4.557h4.556V35.497z M16.094,39.585h4.557v4.557
	h-4.557V39.585z M40.065,44.142h-4.556v-4.557h4.556V44.142z"/>
</svg>
