<?xml version="1.0" encoding="utf-8"?>
<!-- Generator: Adobe Illustrator 15.1.0, SVG Export Plug-In . SVG Version: 6.00 Build 0)  -->
<!DOCTYPE svg PUBLIC "-//W3C//DTD SVG 1.1//EN" "http://www.w3.org/Graphics/SVG/1.1/DTD/svg11.dtd">
<svg version="1.1" id="Layer_1" xmlns="http://www.w3.org/2000/svg" xmlns:xlink="http://www.w3.org/1999/xlink" x="0px" y="0px"
	 width="56.689px" height="56.689px" viewBox="0 0 56.689 56.689" enable-background="new 0 0 56.689 56.689" xml:space="preserve">
<path class="feedback-svg" d="M49.488,21.914h-6.004V9.246c0-3.136-2.552-5.688-5.688-5.688H8.177c-3.136,0-5.687,2.551-5.687,5.688v19.984
	c0,3.136,2.551,5.688,5.687,5.688H8.59L8.53,43.36l12.219-8.441h0.563v7.539c0,2.599,2.114,4.713,4.713,4.713h13.44l9.952,6.877
	l-0.05-6.877h0.12c2.599,0,4.713-2.114,4.713-4.713v-15.83C54.2,24.029,52.086,21.914,49.488,21.914z M20.125,32.918l-9.568,6.609
	l0.047-6.609H8.177c-2.033,0-3.687-1.654-3.687-3.688V9.246c0-2.033,1.654-3.688,3.687-3.688h29.62c2.033,0,3.688,1.654,3.688,3.688
	v12.668H26.025c-2.599,0-4.713,2.114-4.713,4.713v6.291H20.125z M52.2,42.457c0,1.496-1.217,2.713-2.713,2.713h-2.134l0.036,5.045
	l-7.302-5.045H26.025c-1.496,0-2.713-1.217-2.713-2.713v-7.539v-8.291c0-1.496,1.217-2.713,2.713-2.713h17.458h6.004
	c1.496,0,2.713,1.217,2.713,2.713V42.457z M38.81,33.418h5.301v2H38.81v5.301h-2v-5.301h-5.303v-2h5.303v-5.303h2V33.418z"/>
</svg>
